<svg xmlns="http://www.w3.org/2000/svg" viewBox="0 0 115 115">
<!-- Blume von QuiverAI Arrow - als Ausmalvorlage adaptiert -->
  <path id="feld-blume" fill="#FFFFFF" stroke="#424242" stroke-width="1.5" stroke-linejoin="round"
    d="m94 54.3c-5.4-0.8-8.3-1-8.3-1l7.9-2.3c4.7-1.4 11.4-3.1 11.5-13.4-0.1-5.7-3-12.5-7.7-15.7-2.2-1.5-4.7-2.6-8.2-2.62-5.9-0.02-10.3 4.52-13.8 8.52l-4.5 5.5-0.2 0.1c3.6-12.8 4.4-15.1 4.4-16.8 0-5.5-4.7-9.7-9.6-10.6-3.6-0.8-9.8-0.5-14.1 0.3-6.4 1.3-9.6 3.6-11.1 9.2-1.7 7.4 0.3 14.5 5 22.9l-5.8-5.5c-3.6-3.2-7.6-6.7-13.1-6.8-2.3 0-4.3 0.5-6.5 1.7-4.8 2.6-8.6 8.5-10.8 17.2-1.4 6 0.4 11.6 7.2 14 2.1 0.9 4.9 1.5 13.3 2.5l-4.3 1.1c-7.9 2.3-15.3 4.3-15.5 13.3-0.2 8 4.5 19.7 15.7 19.8 5.9 0 9.9-3.9 12.8-7.3 1.8-2.1 4.7-5.6 5.8-7.3l-2.8 10.5c-0.6 2.3-0.9 3.9-1 5.5-0.3 5.8 4.1 10.1 9.6 11.3 4 0.7 9 0.7 14.4-0.2 5-1 7.6-2.3 9.2-5.3 1.7-3.1 2.2-7.5 1.4-12.4-0.9-5.4-3.4-10.2-5.3-14.6l4.8 4.5c4.51 4.2 8.47 8.29 14.57 8.57 7.7 0.37 13.57-6.77 16.03-16.07 1.8-6.5 2.6-11.8-3.9-15.9-2-1.3-4.6-2.2-7.1-2.7zm-40-46c2.1-0.3 4.4-0.4 6.4-0.4 4.1 0 7.9 0.7 10.5 3.4 1.3 1.3 2.1 3.1 2.1 5.4 0 2.1-0.9 4.8-6.3 24.5v0.02c-2.19-1.38-5.18-2.74-9.3-2.74-2.55 0-5.59 0.63-8.56 2.21-0.01 0-0.02-0.01-0.04 0.01-2.1-3.8-6.8-11.4-6.8-19.6 0-8.3 3.7-11.7 12-12.8zm-43.5 40.6c0-2.4 1-5.3 1.5-6.9 2.8-7.2 7.1-13.7 13.7-13.8 4.8 0 9.3 3.3 14.4 8 2.4 2.3 4.8 4.6 6 6.4-1.5 1.1-7.4 6.1-7.3 15l0.1 1.9c-1.9 0.3-3.8 0.4-4.9 0.4-13.4-0.4-23.5-2-23.5-11zm15 44.7c-8.6-0.1-13.6-8.6-13.6-17.1 0-8 5.7-9.2 10.9-10.8 3-0.8 12.2-3.3 16.4-4.3h0.03c1.06 4.6 3.8 8.6 7.37 11.1-0.7 2.2-1.3 3.5-5.6 8.9-6.1 7.5-10.1 12.2-15.5 12.2zm40.6-19.9c4.7 9.1 7.7 15.7 6.6 23.3-0.5 3.4-2.3 6.4-5.4 8-2.5 1.1-7.3 1.9-11.8 1.9-5.1 0-8.4-0.7-11.1-3.3-1.4-1.4-2.4-3.2-2.4-5.6 0-1.7 0.6-4 1.3-6.5l4.72-17.5v0.02l0.28-0.62c1.5 0.8 4.7 2.4 9.2 2.4h1.1c1.9-0.1 5.1-0.6 7.5-2.1zm-8.4-0.3c-8.7 0-16.3-6.1-16.3-15.8 0-8.5 7-16.4 16-16.4s16.2 6.7 16.2 16.4c0 8.3-6.9 15.6-15.9 15.8zm31.5 13.6c-5-0.3-9.1-3.6-13.3-7.6l-7.1-7.3c3.3-2.5 7.3-7.6 7.3-14.5v-1.8l3.6-0.7c3.9-0.3 11.4 0.4 15.4 1.5 3.3 0.8 9.2 3.1 9.2 9 0 4-3.5 20.7-15.1 21.4z"/>
</svg>
